<svg xmlns="http://www.w3.org/2000/svg" width="74" height="74" viewBox="0 0 74 74">
  <g id="youyube" transform="translate(-1372 -5792)">
    <circle id="타원_11" data-name="타원 11" cx="37" cy="37" r="37" transform="translate(1372 5792)" fill="#536782"/>
    <path id="youtube-brands" d="M63.671,69.476a6.255,6.255,0,0,0-4.4-4.429C55.388,64,39.822,64,39.822,64s-15.566,0-19.448,1.047a6.255,6.255,0,0,0-4.4,4.429c-1.04,3.907-1.04,12.059-1.04,12.059s0,8.152,1.04,12.059a6.161,6.161,0,0,0,4.4,4.359C24.256,99,39.822,99,39.822,99s15.566,0,19.448-1.047a6.161,6.161,0,0,0,4.4-4.359c1.04-3.907,1.04-12.059,1.04-12.059S64.711,73.383,63.671,69.476Zm-28.94,19.46v-14.8l13.01,7.4-13.01,7.4Z" transform="translate(1369.067 5747)" fill="#fff"/>
  </g>
</svg>
