<svg xmlns="http://www.w3.org/2000/svg" width="97.424" height="108" viewBox="0 0 97.424 108">
  <g id="location-pin" transform="translate(-2.29 -0.584)">
    <path id="패스_57" data-name="패스 57" d="M21.164,11.693C42.611,11.693,57.34.584,67.674.584s32.04,5.941,32.04,53.482-29.2,54.518-40.566,54.518c-53.23,0-75.967-96.891-37.984-96.891Z" transform="translate(0 0)" fill="#e2eaf3"/>
    <g id="그룹_30" data-name="그룹 30" transform="translate(78.607 20.193)">
      <path id="패스_58" data-name="패스 58" d="M0,0H3.1V6.2H0Z" transform="translate(0 2.193) rotate(-45)" fill="#a4afc1"/>
      <path id="패스_59" data-name="패스 59" d="M0,0H3.1V6.2H0Z" transform="translate(12.605 14.8) rotate(-45)" fill="#a4afc1"/>
      <path id="패스_60" data-name="패스 60" d="M0,0H6.2V3.1H0Z" transform="translate(12.059 4.384) rotate(-45)" fill="#a4afc1"/>
    </g>
    <ellipse id="타원_6" data-name="타원 6" cx="28.682" cy="28.681" rx="28.682" ry="28.681" transform="translate(16.119 19.702)" fill="#f3f3f1"/>
    <ellipse id="타원_7" data-name="타원 7" cx="3.876" cy="3.876" rx="3.876" ry="3.876" transform="translate(68.831 63.111)" fill="#f3f3f1"/>
    <path id="패스_61" data-name="패스 61" d="M33.54,18.067v2.7a10.022,10.022,0,0,1-7.938,9.8,7.936,7.936,0,0,0-4.465,2.7,7.824,7.824,0,0,0-1.767,4.9A7.464,7.464,0,0,1,11.9,45.538H8.858A28.2,28.2,0,0,1,6.75,34.779,28.7,28.7,0,0,1,28.021,7.06,13.789,13.789,0,0,1,33.54,18.067Z" transform="translate(9.369 13.603)" fill="#617590"/>
    <path id="패스_62" data-name="패스 62" d="M37.147,25.542l-6.511.806c-.4.031-.775.062-1.147.062a9.327,9.327,0,0,1-7.938-4.5,18.422,18.422,0,0,1-1.86-14.6A28.815,28.815,0,0,1,37.147,25.542Z" transform="translate(35.002 14.129)" fill="#617590"/>
    <path id="패스_63" data-name="패스 63" d="M47.106,31.12c0,11.01-13.178,22.287-13.178,22.287S20.75,42.133,20.75,31.12a13.179,13.179,0,1,1,26.356,0Z" transform="translate(38.779 36.059)" fill="#617590"/>
    <path id="패스_64" data-name="패스 64" d="M13.727,35.431A28.67,28.67,0,0,1,38.92,6.983a28.681,28.681,0,1,0,0,56.9A28.67,28.67,0,0,1,13.727,35.431Z" transform="translate(9.369 12.952)" fill="#d5dbe1"/>
    <path id="패스_65" data-name="패스 65" d="M30.727,24.626a3.792,3.792,0,0,1,.388-1.631,3.876,3.876,0,1,0,0,3.262A3.792,3.792,0,0,1,30.727,24.626Z" transform="translate(45.081 42.361)" fill="#d5dbe1"/>
    <path id="패스_66" data-name="패스 66" d="M13.727,34.779A28.685,28.685,0,0,1,30.018,8.917a13.515,13.515,0,0,0-2-1.857A28.7,28.7,0,0,0,6.75,34.779,28.2,28.2,0,0,0,8.858,45.538H11.9a7.352,7.352,0,0,0,3.6-.961A28.188,28.188,0,0,1,13.727,34.779Z" transform="translate(9.369 13.603)" fill="#354a62"/>
    <path id="패스_67" data-name="패스 67" d="M28.527,21.914a18.373,18.373,0,0,1-2.49-11.283A28.5,28.5,0,0,0,19.69,7.31a18.422,18.422,0,0,0,1.86,14.6,9.327,9.327,0,0,0,7.938,4.5c.372,0,.744-.031,1.147-.062l3.129-.388a9.358,9.358,0,0,1-5.237-4.046Z" transform="translate(35.002 14.129)" fill="#354a62"/>
    <path id="패스_68" data-name="패스 68" d="M27.727,31.12a13.3,13.3,0,0,1,9.69-12.836,12.867,12.867,0,0,0-3.488-.533A13.276,13.276,0,0,0,20.75,31.12c0,11.01,13.178,22.287,13.178,22.287s1.507-1.3,3.488-3.417C33.512,45.823,27.727,38.425,27.727,31.12Z" transform="translate(38.779 36.059)" fill="#354a62"/>
    <path id="패스_69" data-name="패스 69" d="M35.5,57.308a2.307,2.307,0,0,1-1.51-.558C33.42,56.26,20,44.642,20,32.7a15.5,15.5,0,1,1,31.007,0c0,11.947-13.42,23.565-13.993,24.054A2.307,2.307,0,0,1,35.5,57.308Zm0-35.657A10.962,10.962,0,0,0,24.651,32.7c0,7.7,7.553,15.9,10.852,19.112C38.8,48.592,46.356,40.391,46.356,32.7A10.962,10.962,0,0,0,35.5,21.651Z" transform="translate(37.203 34.483)"/>
    <path id="패스_70" data-name="패스 70" d="M29.2,32.4a6.2,6.2,0,1,1,6.2-6.2A6.208,6.208,0,0,1,29.2,32.4Zm0-7.751a1.55,1.55,0,1,0,1.55,1.55A1.555,1.555,0,0,0,29.2,24.651Z" transform="translate(43.505 40.785)"/>
    <path id="패스_71" data-name="패스 71" d="M10.469,49.126H7.43V44.475h3.039a5.118,5.118,0,0,0,5.147-5.091A10.135,10.135,0,0,1,23.7,29.546a7.807,7.807,0,0,0,5.978-6.359c1.051-4.809-.834-10.278-4.477-13l2.784-3.724c5.116,3.826,7.684,11.116,6.236,17.723-1.147,5.243-4.629,8.858-9.559,9.916a5.517,5.517,0,0,0-4.394,5.361A9.851,9.851,0,0,1,10.469,49.126Z" transform="translate(10.798 12.341)"/>
    <path id="패스_72" data-name="패스 72" d="M31.339,29.144a11.628,11.628,0,0,1-9.367-4.437c-3.553-4.375-4.735-11.45-2.939-17.608l4.462,1.3c-1.343,4.6-.462,10.232,2.09,13.37a7.155,7.155,0,0,0,6.443,2.7l6.406-.794L39,28.288l-6.515.806C32.1,29.129,31.72,29.144,31.339,29.144Z" transform="translate(33.427 13.685)"/>
    <path id="패스_73" data-name="패스 73" d="M37.007,68.012a31.006,31.006,0,1,1,30.6-35.995l-4.589.738A26.358,26.358,0,1,0,37.007,63.361a25.856,25.856,0,0,0,5.839-.657l1.036,4.536a31.09,31.09,0,0,1-6.874.772Z" transform="translate(7.794 11.377)"/>
  </g>
</svg>
