<svg id="christmas-present" xmlns="http://www.w3.org/2000/svg" width="114.552" height="108.289" viewBox="0 0 114.552 108.289">
  <g id="BG" transform="translate(0 5.122)">
    <g id="그룹_6" data-name="그룹 6">
      <path id="패스_4" data-name="패스 4" d="M111.6,61.044C99.479,42.478,100.768,23.447,94.924,14.5S71.661-9.876,30.506,17.006-.181,73.111,6.25,82.95C36.348,129.026,133.081,93.924,111.6,61.044Z" transform="translate(-0.134 -1.91)" fill="#e2eaf3"/>
    </g>
  </g>
  <g id="effect" transform="translate(1.374 0)">
    <g id="그룹_10" data-name="그룹 10" transform="translate(0 0)">
      <g id="그룹_7" data-name="그룹 7" transform="translate(13.035 0.567)">
        <path id="패스_5" data-name="패스 5" d="M0,0H6.412V3.206H0Z" transform="translate(0 4.533) rotate(-45)" fill="#a4afc1"/>
      </g>
      <g id="그룹_8" data-name="그룹 8" transform="translate(0 13.597)">
        <path id="패스_6" data-name="패스 6" d="M0,0H6.412V3.206H0Z" transform="translate(0 4.533) rotate(-45)" fill="#a4afc1"/>
      </g>
      <g id="그룹_9" data-name="그룹 9" transform="translate(0.003)">
        <path id="패스_7" data-name="패스 7" d="M0,0H3.206V6.412H0Z" transform="translate(0 2.267) rotate(-45)" fill="#a4afc1"/>
      </g>
    </g>
  </g>
  <g id="color" transform="translate(21.209 20.397)">
    <g id="그룹_12" data-name="그룹 12" transform="translate(0 16.432)">
      <path id="패스_9" data-name="패스 9" d="M75.678,29.433H9.956A3.207,3.207,0,0,1,6.75,26.227V15.006A3.207,3.207,0,0,1,9.956,11.8H75.678a3.207,3.207,0,0,1,3.206,3.206V26.227A3.207,3.207,0,0,1,75.678,29.433Z" transform="translate(-6.75 -11.8)" fill="#536782"/>
    </g>
    <g id="그룹_13" data-name="그룹 13" transform="translate(6.412 34.004)">
      <path id="패스_10" data-name="패스 10" d="M8.75,17.281V49.4a6.431,6.431,0,0,0,6.412,6.412H61.648A6.431,6.431,0,0,0,68.06,49.4V17.281Z" transform="translate(-8.75 -17.281)" fill="#f3f3f1"/>
    </g>
    <g id="그룹_14" data-name="그룹 14" transform="translate(20.837)">
      <path id="패스_11" data-name="패스 11" d="M23.651,8.458C26.027,10.837,28.479,21.9,28.479,21.9s-11.067-2.453-13.446-4.828a6.094,6.094,0,0,1,8.618-8.618Z" transform="translate(-13.249 -6.675)" fill="#617590"/>
    </g>
    <g id="그룹_15" data-name="그룹 15" transform="translate(36.067)">
      <path id="패스_12" data-name="패스 12" d="M22.828,8.458C20.453,10.837,18,21.9,18,21.9s11.067-2.453,13.446-4.828a6.094,6.094,0,0,0-8.618-8.618Z" transform="translate(-18 -6.675)" fill="#617590"/>
    </g>
    <g id="그룹_16" data-name="그룹 16" transform="translate(28.854 34.004)">
      <path id="패스_13" data-name="패스 13" d="M15.75,17.342V42.99l7.213-4.809,7.213,4.809V17.281Z" transform="translate(-15.75 -17.281)" fill="#617590"/>
    </g>
    <g id="그룹_17" data-name="그룹 17" transform="translate(0 16.432)">
      <path id="패스_14" data-name="패스 14" d="M13.963,26.227V15.006A3.207,3.207,0,0,1,17.169,11.8H9.956A3.207,3.207,0,0,0,6.75,15.006V26.227a3.207,3.207,0,0,0,3.206,3.206h7.213A3.207,3.207,0,0,1,13.963,26.227Z" transform="translate(-6.75 -11.8)" fill="#354a62"/>
    </g>
    <g id="그룹_18" data-name="그룹 18" transform="translate(6.412 34.004)">
      <path id="패스_15" data-name="패스 15" d="M15.963,49.4V17.281H8.75V49.4a6.431,6.431,0,0,0,6.412,6.412h7.213A6.431,6.431,0,0,1,15.963,49.4Z" transform="translate(-8.75 -17.281)" fill="#d5dbe1"/>
    </g>
    <g id="그룹_19" data-name="그룹 19" transform="translate(20.84 0.012)">
      <path id="패스_16" data-name="패스 16" d="M22.248,17.065a6.091,6.091,0,0,1,0-8.614,5.965,5.965,0,0,1,.7-.574,6.08,6.08,0,0,0-7.916,9.188C17.413,19.443,28.477,21.9,28.477,21.9s-.189-.853-.51-2.119C25.515,18.969,23.194,18.014,22.248,17.065Z" transform="translate(-13.25 -6.678)" fill="#354a62"/>
    </g>
    <g id="그룹_20" data-name="그룹 20" transform="translate(36.067 0.012)">
      <path id="패스_17" data-name="패스 17" d="M30.042,8.45a5.965,5.965,0,0,1,.7-.574,6.079,6.079,0,0,0-7.916.574C20.453,10.829,18,21.9,18,21.9s4.011-.891,7.723-2.119c.84-3.328,2.6-9.6,4.318-11.327Z" transform="translate(-18 -6.678)" fill="#354a62"/>
    </g>
    <g id="그룹_23" data-name="그룹 23" transform="translate(28.854 34.004)">
      <g id="그룹_21" data-name="그룹 21">
        <path id="패스_18" data-name="패스 18" d="M22.963,17.342l7.213-.029v-.032l-14.427.061V42.99l7.213-4.809Z" transform="translate(-15.75 -17.281)" fill="#354a62"/>
      </g>
      <g id="그룹_22" data-name="그룹 22" transform="translate(10.82 20.9)">
        <path id="패스_19" data-name="패스 19" d="M22.732,28.609V23.8l-3.607,2.4Z" transform="translate(-19.125 -23.8)" fill="#354a62"/>
      </g>
    </g>
  </g>
  <g id="_x31_.5" transform="translate(18.805 18.074)">
    <g id="그룹_24" data-name="그룹 24" transform="translate(0 16.35)">
      <path id="패스_20" data-name="패스 20" d="M77.333,33.492H11.61A5.617,5.617,0,0,1,6,27.881V16.66a5.617,5.617,0,0,1,5.61-5.61H77.333a5.617,5.617,0,0,1,5.61,5.61V27.881A5.617,5.617,0,0,1,77.333,33.492ZM11.61,15.859a.8.8,0,0,0-.8.8V27.881a.8.8,0,0,0,.8.8H77.333a.8.8,0,0,0,.8-.8V16.66a.8.8,0,0,0-.8-.8Z" transform="translate(-6 -11.05)"/>
    </g>
    <g id="그룹_25" data-name="그룹 25" transform="translate(6.412 37.188)">
      <path id="패스_21" data-name="패스 21" d="M63.3,57.625H16.816A8.826,8.826,0,0,1,8,48.808V17.55h4.809V48.808a4.013,4.013,0,0,0,4.007,4.007H63.3a4.013,4.013,0,0,0,4.007-4.007V17.55h4.809V48.808A8.826,8.826,0,0,1,63.3,57.625Z" transform="translate(-8 -17.55)"/>
    </g>
    <g id="그룹_26" data-name="그룹 26" transform="translate(20.839)">
      <path id="패스_22" data-name="패스 22" d="M30.133,25.907a2.387,2.387,0,0,1-.519-.058c-2.754-.609-11.955-2.808-14.626-5.476a8.5,8.5,0,0,1,0-12.016A8.7,8.7,0,0,1,27,8.357c2.667,2.671,4.87,11.865,5.479,14.622a2.411,2.411,0,0,1-2.347,2.927ZM21,10.678a3.686,3.686,0,0,0-2.606,6.293c.85.846,4.536,2.161,8.448,3.232-1.071-3.911-2.385-7.6-3.235-8.448A3.661,3.661,0,0,0,21,10.678Z" transform="translate(-12.5 -5.95)"/>
    </g>
    <g id="그룹_27" data-name="그룹 27" transform="translate(36.067 0.003)">
      <path id="패스_23" data-name="패스 23" d="M19.655,25.9a2.406,2.406,0,0,1-2.347-2.924c.609-2.757,2.812-11.955,5.479-14.622a8.7,8.7,0,0,1,12.013,0,8.5,8.5,0,0,1,0,12.016c-2.667,2.667-11.868,4.867-14.626,5.476a2.6,2.6,0,0,1-.519.055Zm9.137-15.228a3.662,3.662,0,0,0-2.6,1.077c-.85.85-2.164,4.536-3.235,8.448,3.911-1.071,7.6-2.388,8.448-3.235a3.687,3.687,0,0,0-2.61-6.29Z" transform="translate(-17.25 -5.951)"/>
    </g>
    <g id="그룹_28" data-name="그룹 28" transform="translate(28.854 37.188)">
      <path id="패스_24" data-name="패스 24" d="M31.831,44.8a2.394,2.394,0,0,1-1.334-.4l-5.88-3.921L18.738,44.4A2.4,2.4,0,0,1,15,42.4V17.55h4.809V37.9l3.475-2.318a2.4,2.4,0,0,1,2.667,0L29.427,37.9V17.55h4.809V42.4a2.406,2.406,0,0,1-2.4,2.4Z" transform="translate(-15 -17.55)"/>
    </g>
  </g>
</svg>
