<svg xmlns="http://www.w3.org/2000/svg" width="74" height="74" viewBox="0 0 74 74">
  <g id="그룹_32" data-name="그룹 32" transform="translate(-1326 -5725)">
    <circle id="타원_8" data-name="타원 8" cx="37" cy="37" r="37" transform="translate(1326 5725)" fill="#536782"/>
    <g id="그룹_31" data-name="그룹 31" transform="translate(-0.436 7.572)">
      <path id="패스_74" data-name="패스 74" d="M21.326,39.253H34.253V13.584a1.839,1.839,0,0,0-1.834-1.834H8.584A1.839,1.839,0,0,0,6.75,13.584V37.42a1.839,1.839,0,0,0,1.834,1.834H21.326Z" transform="translate(1335.108 5726.101)" fill="#fff"/>
      <path id="패스_75" data-name="패스 75" d="M32.334,33.872h2.312a1.785,1.785,0,0,0,1.779-1.791V28.5A10.708,10.708,0,0,0,25.757,17.75H21.25V33.872H32.334Z" transform="translate(1348.111 5731.481)" fill="none"/>
      <ellipse id="타원_9" data-name="타원 9" cx="4.268" cy="4.268" rx="4.268" ry="4.268" transform="translate(1371.732 5762.508)" fill="none"/>
      <ellipse id="타원_10" data-name="타원 10" cx="4.268" cy="4.268" rx="4.268" ry="4.268" transform="translate(1347.548 5762.508)" fill="none"/>
      <path id="패스_76" data-name="패스 76" d="M12.345,39.253H8.59a1.842,1.842,0,0,1-1.84-1.84V13.59a1.842,1.842,0,0,1,1.84-1.84h3.793a1.842,1.842,0,0,0-1.84,1.84V37.413A1.846,1.846,0,0,0,12.345,39.253Z" transform="translate(1335.108 5726.101)" fill="#fff"/>
      <path id="패스_77" data-name="패스 77" d="M21.25,17.75h3.793V33.872H21.25Z" transform="translate(1348.111 5731.481)" fill="#fff"/>
      <path id="패스_78" data-name="패스 78" d="M28.664,32.83a4,4,0,0,1-1.9.455,4.268,4.268,0,0,1,0-8.535,4,4,0,0,1,1.9.455,4.251,4.251,0,0,0,0,7.625Z" transform="translate(1349.232 5737.758)" fill="none"/>
      <path id="패스_79" data-name="패스 79" d="M15.914,32.83a4,4,0,0,1-1.9.455,4.268,4.268,0,0,1,0-8.535,4,4,0,0,1,1.9.455,4.251,4.251,0,0,0,0,7.625Z" transform="translate(1337.798 5737.758)" fill="none"/>
      <path id="패스_80" data-name="패스 80" d="M34.925,41.348H22V38.5H33.5V14.257a.417.417,0,0,0-.412-.412H9.257a.417.417,0,0,0-.412.412V38.091a.417.417,0,0,0,.412.412h3.757v2.845H9.257A3.261,3.261,0,0,1,6,38.091V14.257A3.261,3.261,0,0,1,9.257,11H33.091a3.261,3.261,0,0,1,3.257,3.257V39.925A1.423,1.423,0,0,1,34.925,41.348Z" transform="translate(1334.436 5725.428)" fill="#fff"/>
      <path id="패스_81" data-name="패스 81" d="M35.319,35.967H33.007V33.122h2.312a.362.362,0,0,0,.357-.368V29.171a9.3,9.3,0,0,0-9.247-9.326H23.345V33.122h.948v2.845H21.923A1.423,1.423,0,0,1,20.5,34.545V18.423A1.423,1.423,0,0,1,21.923,17h4.5A12.144,12.144,0,0,1,38.519,29.171v3.583A3.21,3.21,0,0,1,35.319,35.967Z" transform="translate(1347.438 5730.809)" fill="#fff"/>
      <path id="패스_82" data-name="패스 82" d="M27.44,35.38a5.69,5.69,0,1,1,5.69-5.69A5.7,5.7,0,0,1,27.44,35.38Zm0-8.535a2.845,2.845,0,1,0,2.845,2.845A2.849,2.849,0,0,0,27.44,26.845Z" transform="translate(1348.559 5737.086)" fill="#fff"/>
      <path id="패스_83" data-name="패스 83" d="M14.69,35.38a5.69,5.69,0,1,1,5.69-5.69A5.7,5.7,0,0,1,14.69,35.38Zm0-8.535a2.845,2.845,0,1,0,2.845,2.845A2.849,2.849,0,0,0,14.69,26.845Z" transform="translate(1337.126 5737.086)" fill="#fff"/>
      <path id="패스_84" data-name="패스 84" d="M0,0H8.158V2.845H0Z" transform="translate(1346.395 5749.338) rotate(-54.482)" fill="#536782"/>
      <path id="패스_85" data-name="패스 85" d="M0,0H8.158V2.845H0Z" transform="translate(1357.773 5755.023) rotate(-54.482)" fill="#536782"/>
      <path id="패스_86" data-name="패스 86" d="M0,0H15V2.843H0Z" transform="translate(1350.161 5755.05) rotate(-55.308)" fill="#536782"/>
    </g>
  </g>
</svg>
